<?xml version="1.0" standalone="no"?><!DOCTYPE svg PUBLIC "-//W3C//DTD SVG 1.1//EN" "http://www.w3.org/Graphics/SVG/1.1/DTD/svg11.dtd"><svg t="1562288520481" class="icon" viewBox="0 0 1024 1024" version="1.1" xmlns="http://www.w3.org/2000/svg" p-id="4247" data-spm-anchor-id="a313x.7781069.0.i4" xmlns:xlink="http://www.w3.org/1999/xlink" width="200" height="200"><defs><style type="text/css"></style></defs><path d="M757 827.6c-40.2 0-76.2-25.5-89.6-63.5l-2.4-6.7H359l-2.4 6.7c-13.4 37.9-49.4 63.3-89.5 63.3-5.4 0-10.8-0.5-16.1-1.4-45.7-7.8-79-47.2-79-93.6v-231c-0.1-46.5 33.1-85.9 79-93.8 5.3-0.9 10.8-1.4 16.1-1.4 40.2 0 76.2 25.5 89.6 63.5l2.4 6.7h58v-115c0-13.8 11.2-25 25-25h45v-90H267c-13.8 0-25-11.2-25-25s11.2-25 25-25h490c13.8 0 25 11.2 25 25s-11.2 25-25 25H537v90h45c13.8 0 25 11.2 25 25v115h58l2.4-6.7c13.4-37.9 49.4-63.3 89.5-63.3 5.4 0 10.8 0.5 16.1 1.4 45.7 7.8 79 47.2 79 93.6v231c0.1 46.5-33.1 85.9-79 93.8-5.2 1-10.7 1.4-16 1.4z m0-371.2c-24.8 0-45 20.2-45 45v231c0 24.8 20.2 45 45 45s45-20.2 45-45v-231c0-24.8-20.1-45-45-45z m-490 0c-24.8 0-45 20.2-45 45v231c0 24.8 20.2 45 45 45s45-20.2 45-45v-231c0-24.8-20.2-45-45-45z m95 251h300v-181H362v181z m105-231h90v-90h-90v90z" p-id="4248"></path></svg>